<svg id="Layer_1" data-name="Layer 1" xmlns="http://www.w3.org/2000/svg" viewBox="0 0 679.07 394.47"><defs><style>.cls-1{fill:#fff;}</style></defs><title>MW_logo_wordmark_hvit</title><polygon class="cls-1" points="57.89 370.01 57.89 319.61 33.73 357.26 9.47 319.6 9.47 370.01 0 370.01 0 304.28 10.84 304.28 34.34 341.63 57.75 304.28 67.37 304.28 67.37 370.01 57.89 370.01"/><path class="cls-1" d="M94.29,546.45V597.2H85.1V531.75H95.72l23.58,37.47,23.48-37.47h9.4V597.2H143V546.45l-24.3,37.88Z" transform="translate(-84.95 -227.33)"/><path class="cls-1" d="M189.37,598.56c-13.58,0-23.82-11.12-23.82-25.87s10.24-25.77,23.82-25.77a20.58,20.58,0,0,1,17,8.29v-7.07h9.37v49.19h-9.37V590A20.51,20.51,0,0,1,189.37,598.56Zm1.33-42.88c-9,0-15.79,7.31-15.79,17s6.94,17.11,15.79,17.11,15.68-7.35,15.68-17.11S199.65,555.68,190.7,555.68Z" transform="translate(-84.95 -227.33)"/><path class="cls-1" d="M206.53,589.54a20.37,20.37,0,0,1-17.16,8.88c-13.27,0-23.68-10.93-23.68-25.73,0-14.51,10-25.63,23.68-25.63a20.37,20.37,0,0,1,17.16,8.58v-7.36h9.09V597.2h-9.09Zm0-16.85c0-9.6-6.63-17.16-15.82-17.16s-15.93,7.56-15.93,17.16,6.74,17.25,15.93,17.25S206.53,582.18,206.53,572.7Z" transform="translate(-84.95 -227.33)"/><path class="cls-1" d="M292.4,538.84a7.09,7.09,0,1,1,7.09-7.09A7.19,7.19,0,0,1,292.4,538.84Z" transform="translate(-84.95 -227.33)"/><path class="cls-1" d="M292.4,538.7a7,7,0,1,0-7-7A7,7,0,0,0,292.4,538.7Z" transform="translate(-84.95 -227.33)"/><rect class="cls-1" x="202.81" y="320.82" width="9.37" height="49.19"/><rect class="cls-1" x="202.95" y="320.96" width="9.08" height="48.91"/><path class="cls-1" d="M348.16,597.34V568.72c0-8-4.68-13-12.22-13s-12.11,5-12.11,13v28.62h-9.37V548.15h9.37v5.71c3.17-4.48,8.32-6.94,14.56-6.94,11.62,0,19.13,8,19.13,20.36v30.06Z" transform="translate(-84.95 -227.33)"/><path class="cls-1" d="M323.7,597.2h-9.08V548.29h9.08v6c3.06-4.59,8.27-7.25,14.71-7.25,11.54,0,19,7.87,19,20.22V597.2h-9.09V568.72c0-8.08-4.7-13.18-12.36-13.18s-12.25,5.1-12.25,13.18Z" transform="translate(-84.95 -227.33)"/><path class="cls-1" d="M393.77,621.8c-8.86,0-16.09-2.17-20.92-6.26l-.09-.08,4.74-7.38.12.09a26.11,26.11,0,0,0,15.64,5.07c10.38,0,16.1-5.6,16.1-15.78v-8.61a20.61,20.61,0,0,1-17,8.38c-13.35,0-23.42-10.81-23.42-25.15s10.07-25,23.42-25a20.88,20.88,0,0,1,17,8v-7h9.27v48.8C418.62,612.74,409.56,621.8,393.77,621.8Zm.1-66.12c-8.88,0-15.58,7-15.58,16.29s6.84,16.51,15.58,16.51,15.48-7.1,15.48-16.51S402.69,555.68,393.87,555.68Z" transform="translate(-84.95 -227.33)"/><path class="cls-1" d="M393.25,613.38c10.31,0,16.24-5.51,16.24-15.92v-9.05a20.44,20.44,0,0,1-17.16,8.68c-13.07,0-23.28-10.62-23.28-25,0-14.2,10.21-24.82,23.28-24.82,7.45,0,13.38,3.17,17.16,8.28v-7.25h9v48.66c0,18.07-11.44,24.71-24.71,24.71-9,0-16.14-2.25-20.83-6.23l4.59-7.15A26.3,26.3,0,0,0,393.25,613.38ZM409.49,572c0-9.09-6.53-16.44-15.62-16.44s-15.72,7.35-15.72,16.44,6.63,16.65,15.72,16.65S409.49,581.17,409.49,572Z" transform="translate(-84.95 -227.33)"/><polygon class="cls-1" points="433.05 369.76 417.75 316.22 402.34 369.76 391.09 369.76 369.98 304.03 380.48 304.03 396.81 357.88 412.23 304.03 423.98 304.03 439.5 357.99 455.83 304.03 465.83 304.03 444.71 369.76 433.05 369.76"/><path class="cls-1" d="M550.59,531.5l-21,65.45H518.11L502.7,543l-15.52,53.91h-11l-21-65.45h10.21l16.44,54.21,15.52-54.21h11.54l15.62,54.32,16.44-54.32Z" transform="translate(-84.95 -227.33)"/><path class="cls-1" d="M576.55,598.56c-13.59,0-23.83-11.12-23.83-25.87s10.25-25.77,23.83-25.77a20.59,20.59,0,0,1,17,8.29v-7.07h9.37v49.19h-9.37V590A20.51,20.51,0,0,1,576.55,598.56Zm1.33-42.88c-9,0-15.79,7.31-15.79,17S569,589.8,577.88,589.8s15.68-7.51,15.68-17.11S586.82,555.68,577.88,555.68Z" transform="translate(-84.95 -227.33)"/><path class="cls-1" d="M593.71,589.54a20.37,20.37,0,0,1-17.16,8.88c-13.27,0-23.69-10.93-23.69-25.73,0-14.51,10-25.63,23.69-25.63a20.37,20.37,0,0,1,17.16,8.58v-7.36h9.09V597.2h-9.09Zm0-16.85c0-9.6-6.64-17.16-15.82-17.16S562,563.1,562,572.7s6.73,17.25,15.93,17.25S593.71,582.18,593.71,572.7Z" transform="translate(-84.95 -227.33)"/><polygon class="cls-1" points="546.69 370.01 528.1 320.82 538.41 320.82 552.91 361.28 567.61 320.82 577.22 320.82 558.62 370.01 546.69 370.01"/><path class="cls-1" d="M662,548.29,643.48,597.2H631.74l-18.49-48.91h10L637.86,589l14.8-40.74Z" transform="translate(-84.95 -227.33)"/><path class="cls-1" d="M694.19,598.56c-14.69,0-25.77-11.12-25.77-25.87,0-14.45,10.69-25.77,24.34-25.77S717,557.84,717,571.78a14.36,14.36,0,0,1-.31,3.3l0,.1H677.91c1.1,9,7.75,15,16.58,15a19.24,19.24,0,0,0,13.58-5.38l.11-.11,5,6.45-.08.09C708.84,595.84,701.78,598.56,694.19,598.56Zm13.21-29.68C706,560.16,700.55,555,692.86,555c-7.53,0-13.3,5.46-14.74,13.92Z" transform="translate(-84.95 -227.33)"/><path class="cls-1" d="M668.56,572.7c0-14.2,10.31-25.63,24.2-25.63,13.69,0,24.1,10.93,24.1,24.71a14.31,14.31,0,0,1-.31,3.26h-38.8c1,8.78,7.45,15.32,16.74,15.32a19.35,19.35,0,0,0,13.68-5.42l4.8,6.23c-4,4.3-10.93,7.25-18.79,7.25C679.28,598.42,668.56,586.88,668.56,572.7ZM678,569h29.61c-1.42-9.09-7-14.2-14.71-14.2C684.9,554.82,679.28,560.85,678,569Z" transform="translate(-84.95 -227.33)"/><path class="cls-1" d="M744.8,598.56c-8.54,0-15.54-2.84-19.71-8l-.08-.09,5.49-6.13.11.13c3.51,4.24,8.63,6.48,14.81,6.48,5.77,0,9.35-2.65,9.35-6.91,0-4.84-5.3-6.53-11.44-8.48-7.6-2.42-16.22-5.15-16.22-14.91,0-6.61,5.57-13.72,17.8-13.72,8.35,0,14.85,2.71,18.3,7.62l.07.1-5.61,5.6-.1-.12c-3.08-3.85-6.92-5.56-12.44-5.56-5.3,0-8.86,2.45-8.86,6.09,0,4.45,5.1,6,11,7.77,7.86,2.37,16.77,5.06,16.77,15.41C764,592.78,756.48,598.56,744.8,598.56Z" transform="translate(-84.95 -227.33)"/><path class="cls-1" d="M763.88,583.82c0,8.26-6.84,14.6-19.08,14.6-9,0-15.73-3.17-19.6-8l5.3-5.92c3.38,4.09,8.48,6.53,14.92,6.53,6.12,0,9.49-2.86,9.49-7.05,0-11.13-27.67-6-27.67-23.38,0-7.15,6.23-13.58,17.66-13.58,8.37,0,14.81,2.75,18.18,7.56l-5.42,5.4c-3.26-4.07-7.25-5.62-12.55-5.62-5.52,0-9,2.66-9,6.23C736.11,571.17,763.88,565.75,763.88,583.82Z" transform="translate(-84.95 -227.33)"/><polygon class="cls-1" points="179.91 370.01 164.47 348.06 157.15 355.91 157.15 370.01 147.78 370.01 147.78 299.48 157.15 299.48 157.15 342.04 177.44 319.87 190.17 319.84 170.97 340.81 191.49 370.01 179.91 370.01"/><polygon class="cls-1" points="170.79 340.8 189.85 319.98 177.5 320.01 157.01 342.4 157.01 299.63 147.93 299.63 147.93 369.87 157.01 369.87 157.01 355.86 164.49 347.83 179.98 369.87 191.21 369.87 170.79 340.8"/><polygon class="cls-1" points="208.85 213.95 270.96 213.95 171.86 1.42 140.8 68.02 208.85 213.95"/><polygon class="cls-1" points="312.78 213.95 374.89 213.95 275.79 1.42 244.73 68.02 312.78 213.95"/><path class="cls-1" d="M211.09,390.22a26.24,26.24,0,1,0,26.64,26.24A26.47,26.47,0,0,0,211.09,390.22Z" transform="translate(-84.95 -227.33)"/><polygon class="cls-1" points="421.54 1.42 520.64 213.95 551.7 147.35 483.65 1.42 421.54 1.42"/><polygon class="cls-1" points="317.61 1.42 416.71 213.95 447.77 147.35 379.72 1.42 317.61 1.42"/><path class="cls-1" d="M651.32,227.33A26.24,26.24,0,1,0,678,253.57,26.47,26.47,0,0,0,651.32,227.33Z" transform="translate(-84.95 -227.33)"/></svg>